<?xml version="1.0" encoding="UTF-8"?>
<svg width="165px" height="33px" viewBox="0 0 165 33" version="1.1" xmlns="http://www.w3.org/2000/svg" xmlns:xlink="http://www.w3.org/1999/xlink">
    <!-- Generator: Sketch 44.1 (41455) - http://www.bohemiancoding.com/sketch -->
    <title>download-mac</title>
    <desc>Created with Sketch.</desc>
    <defs>
        <polygon id="path-1" points="0 32.9998 0 0.137 164.143 0.137 164.143 32.9998"></polygon>
    </defs>
    <g id="Page-11" stroke="none" stroke-width="1" fill="none" fill-rule="evenodd">
        <g id="section-1-copy-13" transform="translate(-658.000000, -401.000000)">
            <g id="download-mac" transform="translate(658.000000, 400.000000)">
                <g id="Group-3" transform="translate(0.000000, 0.863400)">
                    <mask id="mask-2" fill="white">
                        <use xlink:href="#path-1"></use>
                    </mask>
                    <use id="Clip-2" stroke="#979797" opacity="0" xlink:href="#path-1"></use>
                    <path d="M161.6605,32.9998 L2.4785,32.9998 C1.0075,32.9998 -0.0005,31.4698 -0.0005,29.5788 L-0.0005,3.5588 C-0.0005,1.6668 1.1615,0.1368 2.4785,0.1368 L161.6605,0.1368 C163.1325,0.1368 164.1395,1.6668 164.1395,3.5588 L164.1395,29.4888 C164.2165,31.3798 163.0545,32.9998 161.6605,32.9998" id="Fill-1" fill="#625F5F" mask="url(#mask-2)"></path>
                </g>
                <path d="M46.3953,18.4159 C46.3953,18.0009 46.3403,17.6289 46.2303,17.3009 C46.1213,16.9719 45.9623,16.6919 45.7553,16.4649 C45.5473,16.2359 45.2963,16.0619 45.0023,15.9379 C44.7083,15.8169 44.3763,15.7559 44.0073,15.7559 L42.5393,15.7559 L42.5393,21.0759 L44.0073,21.0759 C44.3763,21.0759 44.7083,21.0149 45.0023,20.8929 C45.2963,20.7699 45.5473,20.5959 45.7553,20.3679 C45.9623,20.1399 46.1213,19.8599 46.2303,19.5309 C46.3403,19.2029 46.3953,18.8309 46.3953,18.4159 M47.8373,18.4159 C47.8373,18.9699 47.7453,19.4779 47.5603,19.9419 C47.3753,20.4049 47.1163,20.8039 46.7813,21.1379 C46.4473,21.4729 46.0453,21.7319 45.5753,21.9169 C45.1043,22.1019 44.5823,22.1929 44.0073,22.1929 L41.1283,22.1929 L41.1283,14.6389 L44.0073,14.6389 C44.5823,14.6389 45.1043,14.7319 45.5753,14.9179 C46.0453,15.1029 46.4473,15.3629 46.7813,15.6969 C47.1163,16.0289 47.3753,16.4269 47.5603,16.8909 C47.7453,17.3539 47.8373,17.8619 47.8373,18.4159" id="Fill-4" fill="#FFFFFF"></path>
                <path d="M54.8441,18.4159 C54.8441,18.0009 54.7881,17.6289 54.6771,17.3009 C54.5651,16.9719 54.4071,16.6919 54.2011,16.4619 C53.9961,16.2319 53.7461,16.0559 53.4511,15.9349 C53.1571,15.8119 52.8251,15.7519 52.4561,15.7519 C52.0871,15.7519 51.7551,15.8119 51.4611,15.9349 C51.1671,16.0559 50.9161,16.2319 50.7091,16.4619 C50.5011,16.6919 50.3421,16.9719 50.2311,17.3009 C50.1191,17.6289 50.0631,18.0009 50.0631,18.4159 C50.0631,18.8309 50.1191,19.2029 50.2311,19.5309 C50.3421,19.8599 50.5011,20.1399 50.7091,20.3679 C50.9161,20.5959 51.1671,20.7699 51.4611,20.8929 C51.7551,21.0149 52.0871,21.0759 52.4561,21.0759 C52.8251,21.0759 53.1571,21.0149 53.4511,20.8929 C53.7461,20.7699 53.9961,20.5959 54.2011,20.3679 C54.4071,20.1399 54.5651,19.8599 54.6771,19.5309 C54.7881,19.2029 54.8441,18.8309 54.8441,18.4159 M56.2811,18.4159 C56.2811,18.9699 56.1891,19.4819 56.0071,19.9549 C55.8241,20.4279 55.5651,20.8359 55.2311,21.1799 C54.8971,21.5239 54.4941,21.7939 54.0241,21.9869 C53.5531,22.1809 53.0311,22.2769 52.4561,22.2769 C51.8851,22.2769 51.3641,22.1809 50.8941,21.9869 C50.4241,21.7939 50.0201,21.5239 49.6851,21.1799 C49.3481,20.8359 49.0881,20.4279 48.9041,19.9549 C48.7191,19.4819 48.6271,18.9699 48.6271,18.4159 C48.6271,17.8619 48.7191,17.3489 48.9041,16.8769 C49.0881,16.4049 49.3481,15.9959 49.6851,15.6519 C50.0201,15.3079 50.4241,15.0379 50.8941,14.8449 C51.3641,14.6509 51.8851,14.5549 52.4561,14.5549 C52.8391,14.5549 53.2001,14.5999 53.5381,14.6879 C53.8761,14.7759 54.1861,14.9019 54.4681,15.0639 C54.7501,15.2269 55.0041,15.4229 55.2281,15.6549 C55.4531,15.8859 55.6431,16.1449 55.8001,16.4309 C55.9571,16.7169 56.0761,17.0259 56.1581,17.3599 C56.2401,17.6949 56.2811,18.0469 56.2811,18.4159" id="Fill-6" fill="#FFFFFF"></path>
                <path d="M67.4149,14.6386 L65.0689,22.1936 L63.7999,22.1936 L62.1479,17.0326 C62.1029,16.9056 62.0609,16.7526 62.0229,16.5716 C62.0019,16.6596 61.9809,16.7406 61.9599,16.8176 C61.9399,16.8936 61.9169,16.9646 61.8929,17.0326 L60.2259,22.1936 L58.9509,22.1936 L56.6099,14.6386 L57.7859,14.6386 C57.9079,14.6386 58.0089,14.6666 58.0909,14.7246 C58.1729,14.7826 58.2279,14.8606 58.2559,14.9566 L59.5409,19.4766 C59.5689,19.5886 59.5959,19.7086 59.6219,19.8396 C59.6489,19.9706 59.6759,20.1076 59.7039,20.2496 C59.7309,20.1036 59.7609,19.9656 59.7949,19.8366 C59.8279,19.7076 59.8629,19.5886 59.9019,19.4766 L61.3859,14.9566 C61.4139,14.8766 61.4679,14.8046 61.5509,14.7376 C61.6319,14.6716 61.7319,14.6386 61.8509,14.6386 L62.2639,14.6386 C62.3859,14.6386 62.4849,14.6676 62.5609,14.7276 C62.6379,14.7866 62.6949,14.8626 62.7339,14.9566 L64.2129,19.4766 C64.2859,19.6926 64.3519,19.9426 64.4109,20.2246 C64.4559,19.9486 64.5069,19.7006 64.5619,19.4766 L65.8479,14.9566 C65.8689,14.8696 65.9219,14.7946 66.0069,14.7326 C66.0929,14.6696 66.1939,14.6386 66.3129,14.6386 L67.4149,14.6386 Z" id="Fill-8" fill="#FFFFFF"></path>
                <path d="M74.7147,14.6386 L74.7147,22.1936 L73.9937,22.1936 C73.8817,22.1936 73.7887,22.1746 73.7137,22.1386 C73.6387,22.1016 73.5667,22.0406 73.4977,21.9526 L69.5517,16.9166 C69.5737,17.1456 69.5837,17.3596 69.5837,17.5536 L69.5837,22.1936 L68.3457,22.1936 L68.3457,14.6386 L69.0827,14.6386 C69.1407,14.6386 69.1927,14.6406 69.2357,14.6466 C69.2797,14.6516 69.3177,14.6606 69.3517,14.6766 C69.3837,14.6936 69.4167,14.7156 69.4477,14.7456 C69.4797,14.7756 69.5137,14.8146 69.5517,14.8626 L73.5127,19.9206 C73.5027,19.7986 73.4937,19.6786 73.4867,19.5596 C73.4797,19.4426 73.4767,19.3326 73.4767,19.2316 L73.4767,14.6386 L74.7147,14.6386 Z" id="Fill-10" fill="#FFFFFF"></path>
                <polygon id="Fill-12" fill="#FFFFFF" points="80.8226 21.0341 80.8226 22.1931 76.3976 22.1931 76.3976 14.6381 77.8026 14.6381 77.8026 21.0341"></polygon>
                <path d="M87.3275,18.4159 C87.3275,18.0009 87.2715,17.6289 87.1605,17.3009 C87.0485,16.9719 86.8905,16.6919 86.6845,16.4619 C86.4785,16.2319 86.2295,16.0559 85.9345,15.9349 C85.6405,15.8119 85.3085,15.7519 84.9395,15.7519 C84.5705,15.7519 84.2385,15.8119 83.9445,15.9349 C83.6495,16.0559 83.3985,16.2319 83.1925,16.4619 C82.9845,16.6919 82.8255,16.9719 82.7135,17.3009 C82.6015,17.6289 82.5465,18.0009 82.5465,18.4159 C82.5465,18.8309 82.6015,19.2029 82.7135,19.5309 C82.8255,19.8599 82.9845,20.1399 83.1925,20.3679 C83.3985,20.5959 83.6495,20.7699 83.9445,20.8929 C84.2385,21.0149 84.5705,21.0759 84.9395,21.0759 C85.3085,21.0759 85.6405,21.0149 85.9345,20.8929 C86.2295,20.7699 86.4785,20.5959 86.6845,20.3679 C86.8905,20.1399 87.0485,19.8599 87.1605,19.5309 C87.2715,19.2029 87.3275,18.8309 87.3275,18.4159 M88.7645,18.4159 C88.7645,18.9699 88.6725,19.4819 88.4905,19.9549 C88.3065,20.4279 88.0485,20.8359 87.7135,21.1799 C87.3795,21.5239 86.9775,21.7939 86.5075,21.9869 C86.0365,22.1809 85.5145,22.2769 84.9395,22.2769 C84.3685,22.2769 83.8475,22.1809 83.3775,21.9869 C82.9075,21.7939 82.5035,21.5239 82.1675,21.1799 C81.8315,20.8359 81.5715,20.4279 81.3865,19.9549 C81.2025,19.4819 81.1095,18.9699 81.1095,18.4159 C81.1095,17.8619 81.2025,17.3489 81.3865,16.8769 C81.5715,16.4049 81.8315,15.9959 82.1675,15.6519 C82.5035,15.3079 82.9075,15.0379 83.3775,14.8449 C83.8475,14.6509 84.3685,14.5549 84.9395,14.5549 C85.3225,14.5549 85.6825,14.5999 86.0215,14.6879 C86.3585,14.7759 86.6695,14.9019 86.9515,15.0639 C87.2335,15.2269 87.4875,15.4229 87.7115,15.6549 C87.9355,15.8859 88.1265,16.1449 88.2835,16.4309 C88.4405,16.7169 88.5595,17.0259 88.6415,17.3599 C88.7235,17.6949 88.7645,18.0469 88.7645,18.4159" id="Fill-14" fill="#FFFFFF"></path>
                <path d="M93.7645,19.3407 L92.8455,16.8277 C92.7995,16.7167 92.7525,16.5837 92.7035,16.4307 C92.6555,16.2777 92.6065,16.1117 92.5575,15.9347 C92.5125,16.1117 92.4655,16.2777 92.4165,16.4337 C92.3685,16.5877 92.3205,16.7227 92.2755,16.8377 L91.3615,19.3407 L93.7645,19.3407 Z M96.2465,22.1937 L95.1605,22.1937 C95.0375,22.1937 94.9385,22.1627 94.8625,22.1017 C94.7855,22.0417 94.7275,21.9657 94.6895,21.8747 L94.1245,20.3337 L90.9955,20.3337 L90.4315,21.8747 C90.4035,21.9547 90.3485,22.0287 90.2695,22.0947 C90.1895,22.1597 90.0895,22.1937 89.9715,22.1937 L88.8735,22.1937 L91.8475,14.6387 L93.2795,14.6387 L96.2465,22.1937 Z" id="Fill-16" fill="#FFFFFF"></path>
                <path d="M102.2972,18.4159 C102.2972,18.0009 102.2422,17.6289 102.1322,17.3009 C102.0232,16.9719 101.8642,16.6919 101.6572,16.4649 C101.4502,16.2359 101.1992,16.0619 100.9052,15.9379 C100.6102,15.8169 100.2782,15.7559 99.9092,15.7559 L98.4412,15.7559 L98.4412,21.0759 L99.9092,21.0759 C100.2782,21.0759 100.6102,21.0149 100.9052,20.8929 C101.1992,20.7699 101.4502,20.5959 101.6572,20.3679 C101.8642,20.1399 102.0232,19.8599 102.1322,19.5309 C102.2422,19.2029 102.2972,18.8309 102.2972,18.4159 M103.7392,18.4159 C103.7392,18.9699 103.6472,19.4779 103.4622,19.9419 C103.2772,20.4049 103.0182,20.8039 102.6842,21.1379 C102.3492,21.4729 101.9472,21.7319 101.4772,21.9169 C101.0062,22.1019 100.4842,22.1929 99.9092,22.1929 L97.0302,22.1929 L97.0302,14.6389 L99.9092,14.6389 C100.4842,14.6389 101.0062,14.7319 101.4772,14.9179 C101.9472,15.1029 102.3492,15.3629 102.6842,15.6969 C103.0182,16.0289 103.2772,16.4269 103.4622,16.8909 C103.6472,17.3539 103.7392,17.8619 103.7392,18.4159" id="Fill-18" fill="#FFFFFF"></path>
                <path d="M113.0823,19.0995 C113.0303,18.1175 112.9673,16.9365 112.9783,16.0585 L112.9463,16.0585 C112.7063,16.8845 112.4133,17.7615 112.0583,18.7345 L110.8143,22.1525 L110.1243,22.1525 L108.9853,18.7965 C108.6513,17.8035 108.3693,16.8945 108.1693,16.0585 L108.1493,16.0585 C108.1283,16.9365 108.0763,18.1175 108.0133,19.1725 L107.8253,22.1935 L106.9573,22.1935 L107.4493,15.1495 L108.6093,15.1495 L109.8113,18.5565 C110.1033,19.4245 110.3443,20.1975 110.5213,20.9295 L110.5533,20.9295 C110.7303,20.2185 110.9813,19.4455 111.2953,18.5565 L112.5493,15.1495 L113.7093,15.1495 L114.1483,22.1935 L113.2603,22.1935 L113.0823,19.0995 Z" id="Fill-20" fill="#FFFFFF"></path>
                <path d="M118.244,19.6122 C117.241,19.5912 116.101,19.7682 116.101,20.7512 C116.101,21.3462 116.499,21.6302 116.969,21.6302 C117.627,21.6302 118.045,21.2112 118.192,20.7822 C118.223,20.6882 118.244,20.5842 118.244,20.4902 L118.244,19.6122 Z M118.38,22.1932 L118.306,21.5562 L118.275,21.5562 C117.993,21.9532 117.45,22.3082 116.728,22.3082 C115.704,22.3082 115.182,21.5882 115.182,20.8552 C115.182,19.6332 116.268,18.9642 118.223,18.9742 L118.223,18.8702 C118.223,18.4522 118.108,17.7002 117.074,17.7002 C116.603,17.7002 116.112,17.8452 115.757,18.0752 L115.547,17.4692 C115.965,17.1982 116.572,17.0202 117.209,17.0202 C118.756,17.0202 119.132,18.0752 119.132,19.0902 L119.132,20.9812 C119.132,21.4202 119.153,21.8482 119.216,22.1932 L118.38,22.1932 Z" id="Fill-22" fill="#FFFFFF"></path>
                <path d="M124.2215,22.0058 C123.9815,22.1308 123.4485,22.2988 122.7685,22.2988 C121.2425,22.2988 120.2495,21.2638 120.2495,19.7168 C120.2495,18.1588 121.3155,17.0308 122.9675,17.0308 C123.5115,17.0308 123.9915,17.1658 124.2425,17.2918 L124.0335,18.0018 C123.8135,17.8768 123.4695,17.7618 122.9675,17.7618 C121.8065,17.7618 121.1795,18.6188 121.1795,19.6748 C121.1795,20.8458 121.9325,21.5668 122.9365,21.5668 C123.4585,21.5668 123.8035,21.4308 124.0645,21.3168 L124.2215,22.0058 Z" id="Fill-24" fill="#FFFFFF"></path>
                <path d="M128.098,18.7138 C128.098,20.2188 128.913,21.5668 130.345,21.5668 C131.787,21.5668 132.603,20.2388 132.603,18.6408 C132.603,17.2388 131.871,15.7758 130.355,15.7758 C128.85,15.7758 128.098,17.1658 128.098,18.7138 M133.564,18.5988 C133.564,21.0228 132.09,22.3088 130.293,22.3088 C128.432,22.3088 127.126,20.8658 127.126,18.7348 C127.126,16.4968 128.516,15.0338 130.397,15.0338 C132.32,15.0338 133.564,16.5078 133.564,18.5988" id="Fill-26" fill="#FFFFFF"></path>
                <path d="M134.619,21.0858 C135.027,21.3368 135.622,21.5458 136.249,21.5458 C137.18,21.5458 137.723,21.0548 137.723,20.3438 C137.723,19.6858 137.347,19.3098 136.395,18.9428 C135.246,18.5358 134.536,17.9398 134.536,16.9468 C134.536,15.8498 135.445,15.0338 136.814,15.0338 C137.535,15.0338 138.057,15.2008 138.371,15.3798 L138.12,16.1218 C137.89,15.9948 137.42,15.7868 136.782,15.7868 C135.821,15.7868 135.454,16.3618 135.454,16.8428 C135.454,17.5008 135.883,17.8248 136.855,18.2018 C138.047,18.6608 138.653,19.2358 138.653,20.2708 C138.653,21.3568 137.848,22.2988 136.187,22.2988 C135.507,22.2988 134.765,22.0998 134.389,21.8488 L134.619,21.0858 Z" id="Fill-28" fill="#FFFFFF"></path>
                <path d="M143.7523,22.1933 L142.8543,20.6353 C142.4873,20.0403 142.2573,19.6533 142.0383,19.2463 L142.0173,19.2463 C141.8183,19.6533 141.6203,20.0303 141.2543,20.6473 L140.4083,22.1933 L139.3623,22.1933 L141.5163,18.6293 L139.4463,15.1493 L140.5023,15.1493 L141.4323,16.8003 C141.6933,17.2603 141.8923,17.6163 142.0803,17.9923 L142.1113,17.9923 C142.3103,17.5743 142.4873,17.2503 142.7493,16.8003 L143.7103,15.1493 L144.7553,15.1493 L142.6133,18.5773 L144.8083,22.1933 L143.7523,22.1933 Z" id="Fill-30" fill="#FFFFFF"></path>
                <path d="M28.0184,24.0312 C27.3064,25.0712 26.5734,26.1102 25.4114,26.1282 C24.2754,26.1482 23.9094,25.4502 22.6084,25.4502 C21.3084,25.4502 20.8994,26.1102 19.8244,26.1482 C18.7064,26.1892 17.8584,25.0282 17.1424,23.9882 C15.6834,21.8722 14.5684,18.0042 16.0674,15.3942 C16.8104,14.0952 18.1394,13.2742 19.5824,13.2552 C20.6784,13.2322 21.7164,13.9962 22.3894,13.9962 C23.0584,13.9962 24.3204,13.0792 25.6414,13.2172 C26.1944,13.2372 27.7524,13.4382 28.7524,14.9042 C28.6714,14.9552 26.8934,15.9932 26.9124,18.1552 C26.9384,20.7362 29.1724,21.5952 29.1954,21.6032 C29.1724,21.6642 28.8354,22.8302 28.0184,24.0312 M23.1544,10.3802 C23.7684,9.6582 24.8054,9.1232 25.6554,9.0892 C25.7684,10.0892 25.3704,11.0892 24.7724,11.8132 C24.1764,12.5332 23.2064,13.0972 22.2494,13.0222 C22.1224,12.0402 22.6034,11.0202 23.1544,10.3802" id="Fill-32" fill="#FFFFFF"></path>
            </g>
        </g>
    </g>
</svg>