<?xml version="1.0" encoding="UTF-8"?>
<svg width="616px" height="622px" viewBox="0 0 582 595" version="1.1" xmlns="http://www.w3.org/2000/svg" xmlns:xlink="http://www.w3.org/1999/xlink">
    <!-- Generator: Sketch 44.1 (41455) - http://www.bohemiancoding.com/sketch -->
    <title>timer</title>
    <desc>Created with Sketch.</desc>
    <defs>
        <path d="M422.198973,41.858487 C379.806781,15.3326613 329.693958,-1.13686838e-13 276,-1.13686838e-13 C123.569409,-1.13686838e-13 1.13686838e-13,123.569409 1.13686838e-13,276 C1.13686838e-13,428.430591 123.569409,552 276,552 C428.430591,552 552,428.430591 552,276 C552,234.204762 542.709902,194.579343 526.082029,159.076066 L552,43.9520548 L422.198977,41.8584899 Z" id="path-1"></path>
        <filter x="-4.5%" y="-3.4%" width="109.4%" height="109.4%" filterUnits="objectBoundingBox" id="filter-2">
            <feOffset dx="1" dy="7" in="SourceAlpha" result="shadowOffsetOuter1"></feOffset>
            <feGaussianBlur stdDeviation="7.5" in="shadowOffsetOuter1" result="shadowBlurOuter1"></feGaussianBlur>
            <feColorMatrix values="0 0 0 0 0.550728104   0 0 0 0 0.546260392   0 0 0 0 0.528389543  0 0 0 1 0" type="matrix" in="shadowBlurOuter1"></feColorMatrix>
        </filter>
        <path d="M272.582869,179.998874 L272.582869,79.5061783 C235.418398,80.0589434 200.576707,90.0087152 170.159358,106.923327 L220.486245,194.039107 C236.08205,185.526525 253.779417,180.551639 272.582869,179.998874" id="path-3"></path>
        <filter x="-8.3%" y="-5.7%" width="116.6%" height="114.8%" filterUnits="objectBoundingBox" id="filter-4">
            <feOffset dx="0" dy="2" in="SourceAlpha" result="shadowOffsetOuter1"></feOffset>
            <feGaussianBlur stdDeviation="2.5" in="shadowOffsetOuter1" result="shadowBlurOuter1"></feGaussianBlur>
            <feColorMatrix values="0 0 0 0 0.580392157   0 0 0 0 0.552941176   0 0 0 0 0.552941176  0 0 0 1 0" type="matrix" in="shadowBlurOuter1"></feColorMatrix>
        </filter>
        <path d="M213.923471,197.690669 L163.596584,110.574889 C132.847409,129.037244 107.075619,154.796097 88.6039919,185.529837 L175.763524,235.831461 C185.386467,220.354038 198.438275,207.198229 213.923471,197.690669" id="path-5"></path>
        <filter x="-6.8%" y="-5.2%" width="113.6%" height="113.6%" filterUnits="objectBoundingBox" id="filter-6">
            <feOffset dx="0" dy="2" in="SourceAlpha" result="shadowOffsetOuter1"></feOffset>
            <feGaussianBlur stdDeviation="2.5" in="shadowOffsetOuter1" result="shadowBlurOuter1"></feGaussianBlur>
            <feColorMatrix values="0 0 0 0 0.580392157   0 0 0 0 0.552941176   0 0 0 0 0.552941176  0 0 0 1 0" type="matrix" in="shadowBlurOuter1"></feColorMatrix>
        </filter>
        <path d="M173.097182,241.682088 L85.936544,191.380464 C69.0134369,221.782544 59.1703826,256.606746 58.5056253,293.642008 L159.049897,293.642008 C159.712442,274.958547 164.689827,257.270064 173.097182,241.682088" id="path-7"></path>
        <filter x="-7.4%" y="-6.4%" width="114.8%" height="116.6%" filterUnits="objectBoundingBox" id="filter-8">
            <feOffset dx="0" dy="2" in="SourceAlpha" result="shadowOffsetOuter1"></feOffset>
            <feGaussianBlur stdDeviation="2.5" in="shadowOffsetOuter1" result="shadowBlurOuter1"></feGaussianBlur>
            <feColorMatrix values="0 0 0 0 0.580392157   0 0 0 0 0.552941176   0 0 0 0 0.552941176  0 0 0 1 0" type="matrix" in="shadowBlurOuter1"></feColorMatrix>
        </filter>
        <path d="M159.048238,300.870743 L58.5061783,300.870743 C59.059221,338.016558 68.9022753,372.840759 85.935991,403.24284 L173.095523,352.941216 C164.578665,337.463793 159.601281,319.664756 159.048238,300.870743" id="path-9"></path>
        <filter x="-7.4%" y="-6.3%" width="114.8%" height="116.6%" filterUnits="objectBoundingBox" id="filter-10">
            <feOffset dx="0" dy="2" in="SourceAlpha" result="shadowOffsetOuter1"></feOffset>
            <feGaussianBlur stdDeviation="2.5" in="shadowOffsetOuter1" result="shadowBlurOuter1"></feGaussianBlur>
            <feColorMatrix values="0 0 0 0 0.580392157   0 0 0 0 0.552941176   0 0 0 0 0.552941176  0 0 0 1 0" type="matrix" in="shadowBlurOuter1"></feColorMatrix>
        </filter>
        <path d="M175.763524,358.153679 L88.6039919,408.455303 C107.075619,439.189043 132.847409,464.947896 163.596584,483.410251 L213.923471,396.294471 C198.438275,386.786911 185.386467,373.631101 175.763524,358.153679" id="path-11"></path>
        <filter x="-6.8%" y="-5.2%" width="113.6%" height="113.6%" filterUnits="objectBoundingBox" id="filter-12">
            <feOffset dx="0" dy="2" in="SourceAlpha" result="shadowOffsetOuter1"></feOffset>
            <feGaussianBlur stdDeviation="2.5" in="shadowOffsetOuter1" result="shadowBlurOuter1"></feGaussianBlur>
            <feColorMatrix values="0 0 0 0 0.580392157   0 0 0 0 0.552941176   0 0 0 0 0.552941176  0 0 0 1 0" type="matrix" in="shadowBlurOuter1"></feColorMatrix>
        </filter>
        <path d="M220.707573,400.344139 L170.380686,487.459919 C200.798035,504.375637 235.639726,514.325409 272.805303,514.878174 L272.805303,414.384373 C254.000744,413.721055 236.303377,408.746169 220.707573,400.344139" id="path-13"></path>
        <filter x="-8.3%" y="-5.7%" width="116.6%" height="114.8%" filterUnits="objectBoundingBox" id="filter-14">
            <feOffset dx="0" dy="2" in="SourceAlpha" result="shadowOffsetOuter1"></feOffset>
            <feGaussianBlur stdDeviation="2.5" in="shadowOffsetOuter1" result="shadowBlurOuter1"></feGaussianBlur>
            <feColorMatrix values="0 0 0 0 0.580392157   0 0 0 0 0.552941176   0 0 0 0 0.552941176  0 0 0 1 0" type="matrix" in="shadowBlurOuter1"></feColorMatrix>
        </filter>
        <path d="M279.870743,413.942492 L279.870743,514.435188 C317.035214,513.882423 351.876905,504.043204 382.294254,487.018039 L331.967367,399.902259 C316.482171,408.414841 298.784804,413.389727 279.870743,413.942492" id="path-15"></path>
        <filter x="-8.3%" y="-5.7%" width="116.6%" height="114.8%" filterUnits="objectBoundingBox" id="filter-16">
            <feOffset dx="0" dy="2" in="SourceAlpha" result="shadowOffsetOuter1"></feOffset>
            <feGaussianBlur stdDeviation="2.5" in="shadowOffsetOuter1" result="shadowBlurOuter1"></feGaussianBlur>
            <feColorMatrix values="0 0 0 0 0.580392157   0 0 0 0 0.552941176   0 0 0 0 0.552941176  0 0 0 1 0" type="matrix" in="shadowBlurOuter1"></feColorMatrix>
        </filter>
        <path d="M338.124576,396.294471 L388.451463,483.410251 C419.201744,464.947896 444.973535,439.189043 463.445161,408.455303 L376.284523,358.153679 C366.662686,373.631101 353.609772,386.676358 338.124576,396.294471" id="path-17"></path>
        <filter x="-6.8%" y="-5.2%" width="113.6%" height="113.6%" filterUnits="objectBoundingBox" id="filter-18">
            <feOffset dx="0" dy="2" in="SourceAlpha" result="shadowOffsetOuter1"></feOffset>
            <feGaussianBlur stdDeviation="2.5" in="shadowOffsetOuter1" result="shadowBlurOuter1"></feGaussianBlur>
            <feColorMatrix values="0 0 0 0 0.580392157   0 0 0 0 0.552941176   0 0 0 0 0.552941176  0 0 0 1 0" type="matrix" in="shadowBlurOuter1"></feColorMatrix>
        </filter>
        <path d="M379.455191,352.301646 L466.615829,402.60327 C483.538936,372.201189 493.493705,337.266435 494.046748,300.12062 L393.502476,300.12062 C392.839931,318.914634 387.862546,336.603117 379.455191,352.301646" id="path-19"></path>
        <filter x="-7.4%" y="-6.3%" width="114.8%" height="116.6%" filterUnits="objectBoundingBox" id="filter-20">
            <feOffset dx="0" dy="2" in="SourceAlpha" result="shadowOffsetOuter1"></feOffset>
            <feGaussianBlur stdDeviation="2.5" in="shadowOffsetOuter1" result="shadowBlurOuter1"></feGaussianBlur>
            <feColorMatrix values="0 0 0 0 0.580392157   0 0 0 0 0.552941176   0 0 0 0 0.552941176  0 0 0 1 0" type="matrix" in="shadowBlurOuter1"></feColorMatrix>
        </filter>
        <path d="M393.920441,293.531455 L494.462501,293.531455 C493.909458,256.38564 483.954689,221.561438 467.032688,191.159358 L379.873156,241.460982 C388.390014,257.048958 393.367398,274.737441 393.920441,293.531455" id="path-21"></path>
        <filter x="-7.4%" y="-6.3%" width="114.8%" height="116.6%" filterUnits="objectBoundingBox" id="filter-22">
            <feOffset dx="0" dy="2" in="SourceAlpha" result="shadowOffsetOuter1"></feOffset>
            <feGaussianBlur stdDeviation="2.5" in="shadowOffsetOuter1" result="shadowBlurOuter1"></feGaussianBlur>
            <feColorMatrix values="0 0 0 0 0.580392157   0 0 0 0 0.552941176   0 0 0 0 0.552941176  0 0 0 1 0" type="matrix" in="shadowBlurOuter1"></feColorMatrix>
        </filter>
        <path d="M376.284523,235.831461 L463.445161,185.529837 C444.973535,154.796097 419.201744,129.037244 388.451463,110.574889 L338.124576,197.690669 C353.609772,207.308782 366.662686,220.354038 376.284523,235.831461" id="path-23"></path>
        <filter x="-6.8%" y="-5.2%" width="113.6%" height="113.6%" filterUnits="objectBoundingBox" id="filter-24">
            <feOffset dx="0" dy="2" in="SourceAlpha" result="shadowOffsetOuter1"></feOffset>
            <feGaussianBlur stdDeviation="2.5" in="shadowOffsetOuter1" result="shadowBlurOuter1"></feGaussianBlur>
            <feColorMatrix values="0 0 0 0 0.580392157   0 0 0 0 0.552941176   0 0 0 0 0.552941176  0 0 0 1 0" type="matrix" in="shadowBlurOuter1"></feColorMatrix>
        </filter>
        <path d="M332.188252,195.033863 L382.515139,107.918083 C352.09779,91.0034713 317.256099,81.1642525 280.091628,80.5009344 L280.091628,180.99363 C298.895081,181.656948 316.592448,186.631834 332.188252,195.033863" id="path-25"></path>
        <filter x="-8.3%" y="-5.7%" width="116.6%" height="114.8%" filterUnits="objectBoundingBox" id="filter-26">
            <feOffset dx="0" dy="2" in="SourceAlpha" result="shadowOffsetOuter1"></feOffset>
            <feGaussianBlur stdDeviation="2.5" in="shadowOffsetOuter1" result="shadowBlurOuter1"></feGaussianBlur>
            <feColorMatrix values="0 0 0 0 0.580392157   0 0 0 0 0.552941176   0 0 0 0 0.552941176  0 0 0 1 0" type="matrix" in="shadowBlurOuter1"></feColorMatrix>
        </filter>
        <path d="M226.509041,314.670616 L226.509041,320.790822 L200.043288,320.790822 L200.043288,314.670616 L209.73637,314.670616 L209.73637,286.782329 C209.73637,285.679584 209.769452,284.543773 209.835616,283.374863 L202.954521,289.131164 C202.557532,289.439933 202.166064,289.632911 201.780103,289.710103 C201.394142,289.787295 201.030241,289.792809 200.68839,289.726644 C200.346539,289.660479 200.043289,289.544693 199.77863,289.379281 C199.513971,289.213869 199.31548,289.031919 199.183151,288.833425 L196.60274,285.29363 L211.191986,272.887808 L217.907671,272.887808 L217.907671,314.670616 L226.509041,314.670616 Z M263.097945,313.181918 C263.980141,313.181918 264.680374,313.430032 265.198664,313.926267 C265.716955,314.422502 265.976096,315.078626 265.976096,315.894658 L265.976096,320.790822 L233.158562,320.790822 L233.158562,318.078082 C233.158562,317.52671 233.274348,316.947777 233.505925,316.341267 C233.737501,315.734757 234.106915,315.188907 234.614178,314.703699 L249.13726,300.147534 C250.35028,298.91246 251.436468,297.73254 252.395856,296.60774 C253.355245,295.48294 254.154723,294.369184 254.794315,293.266438 C255.433907,292.163693 255.924622,291.044423 256.266473,289.908596 C256.608324,288.772768 256.779247,287.576308 256.779247,286.319178 C256.779247,285.172323 256.613837,284.163326 256.283014,283.292158 C255.95219,282.420989 255.48353,281.687674 254.877021,281.092192 C254.270511,280.496709 253.54271,280.050104 252.693596,279.752363 C251.844482,279.454622 250.890622,279.305753 249.831986,279.305753 C248.86157,279.305753 247.962847,279.443595 247.135788,279.719281 C246.308729,279.994967 245.575414,280.380922 244.935822,280.877158 C244.29623,281.373393 243.755893,281.952325 243.314795,282.613973 C242.873696,283.27562 242.542878,284.003421 242.322329,284.797397 C241.947395,285.811923 241.462195,286.484587 240.866712,286.815411 C240.27123,287.146235 239.411102,287.223426 238.286301,287.046986 L233.985616,286.286096 C234.31644,283.992386 234.956023,281.979906 235.904384,280.248596 C236.852744,278.517286 238.038178,277.072711 239.460719,275.914829 C240.883261,274.756946 242.515299,273.885791 244.356884,273.301336 C246.198468,272.716881 248.177866,272.424658 250.295137,272.424658 C252.500627,272.424658 254.518621,272.749963 256.349178,273.400582 C258.179735,274.051202 259.74561,274.97198 261.046849,276.162945 C262.348089,277.35391 263.362599,278.787457 264.090411,280.46363 C264.818223,282.139803 265.182123,284.003414 265.182123,286.054521 C265.182123,287.818913 264.922982,289.450951 264.404692,290.950685 C263.886402,292.450418 263.191682,293.883966 262.320514,295.25137 C261.449345,296.618774 260.429321,297.942048 259.260411,299.221233 C258.091501,300.500417 256.867472,301.801637 255.588288,303.124932 L244.803493,314.141301 C245.840074,313.832533 246.871125,313.595446 247.896678,313.430034 C248.922231,313.264622 249.898146,313.181918 250.824452,313.181918 L263.097945,313.181918 Z M272.52637,316.291644 C272.52637,315.607942 272.653184,314.957332 272.906815,314.339795 C273.160446,313.722257 273.507806,313.192947 273.948904,312.751849 C274.390002,312.310751 274.919312,311.957878 275.536849,311.693219 C276.154387,311.42856 276.816024,311.296233 277.521781,311.296233 C278.227538,311.296233 278.883661,311.42856 279.490171,311.693219 C280.096681,311.957878 280.625991,312.310751 281.078116,312.751849 C281.530242,313.192947 281.888629,313.722257 282.153288,314.339795 C282.417947,314.957332 282.550274,315.607942 282.550274,316.291644 C282.550274,316.997401 282.417947,317.653524 282.153288,318.260034 C281.888629,318.866544 281.530242,319.39034 281.078116,319.831438 C280.625991,320.272536 280.096681,320.619896 279.490171,320.873527 C278.883661,321.127159 278.227538,321.253973 277.521781,321.253973 C276.816024,321.253973 276.154387,321.127159 275.536849,320.873527 C274.919312,320.619896 274.390002,320.272536 273.948904,319.831438 C273.507806,319.39034 273.160446,318.866544 272.906815,318.260034 C272.653184,317.653524 272.52637,316.997401 272.52637,316.291644 Z M272.52637,292.704041 C272.52637,292.020339 272.653184,291.369729 272.906815,290.752192 C273.160446,290.134654 273.507806,289.605345 273.948904,289.164247 C274.390002,288.723148 274.919312,288.370275 275.536849,288.105616 C276.154387,287.840958 276.816024,287.70863 277.521781,287.70863 C278.227538,287.70863 278.883661,287.840958 279.490171,288.105616 C280.096681,288.370275 280.625991,288.723148 281.078116,289.164247 C281.530242,289.605345 281.888629,290.134654 282.153288,290.752192 C282.417947,291.369729 282.550274,292.020339 282.550274,292.704041 C282.550274,293.409798 282.417947,294.065922 282.153288,294.672432 C281.888629,295.278941 281.530242,295.802738 281.078116,296.243836 C280.625991,296.684934 280.096681,297.032293 279.490171,297.285925 C278.883661,297.539556 278.227538,297.66637 277.521781,297.66637 C276.816024,297.66637 276.154387,297.539556 275.536849,297.285925 C274.919312,297.032293 274.390002,296.684934 273.948904,296.243836 C273.507806,295.802738 273.160446,295.278941 272.906815,294.672432 C272.653184,294.065922 272.52637,293.409798 272.52637,292.704041 Z M322.778219,296.872397 C322.778219,301.040774 322.331614,304.663238 321.43839,307.739897 C320.545167,310.816556 319.310111,313.358346 317.733185,315.365342 C316.156259,317.372339 314.292648,318.866536 312.142295,319.847979 C309.991941,320.829423 307.670697,321.320137 305.178493,321.320137 C302.686289,321.320137 300.376072,320.829423 298.247774,319.847979 C296.119476,318.866536 294.272405,317.372339 292.706507,315.365342 C291.140609,313.358346 289.91658,310.816556 289.034384,307.739897 C288.152187,304.663238 287.711096,301.040774 287.711096,296.872397 C287.711096,292.681965 288.152187,289.053988 289.034384,285.988356 C289.91658,282.922724 291.140609,280.386448 292.706507,278.379452 C294.272405,276.372456 296.119476,274.878258 298.247774,273.896815 C300.376072,272.915372 302.686289,272.424658 305.178493,272.424658 C307.670697,272.424658 309.991941,272.915372 312.142295,273.896815 C314.292648,274.878258 316.156259,276.372456 317.733185,278.379452 C319.310111,280.386448 320.545167,282.922724 321.43839,285.988356 C322.331614,289.053988 322.778219,292.681965 322.778219,296.872397 Z M314.34226,296.872397 C314.34226,293.409777 314.088633,290.542683 313.58137,288.271027 C313.074107,285.999372 312.395929,284.190897 311.546815,282.845548 C310.697701,281.500199 309.721786,280.557366 308.619041,280.017021 C307.516296,279.476675 306.369458,279.206507 305.178493,279.206507 C304.009583,279.206507 302.879286,279.476675 301.787568,280.017021 C300.695851,280.557366 299.730963,281.500199 298.892877,282.845548 C298.05479,284.190897 297.387639,285.999372 296.891404,288.271027 C296.395169,290.542683 296.147055,293.409777 296.147055,296.872397 C296.147055,300.335017 296.395169,303.202112 296.891404,305.473767 C297.387639,307.745422 298.05479,309.553897 298.892877,310.899247 C299.730963,312.244596 300.695851,313.187429 301.787568,313.727774 C302.879286,314.268119 304.009583,314.538288 305.178493,314.538288 C306.369458,314.538288 307.516296,314.268119 308.619041,313.727774 C309.721786,313.187429 310.697701,312.244596 311.546815,310.899247 C312.395929,309.553897 313.074107,307.745422 313.58137,305.473767 C314.088633,303.202112 314.34226,300.335017 314.34226,296.872397 Z M361.153562,296.872397 C361.153562,301.040774 360.706957,304.663238 359.813733,307.739897 C358.920509,310.816556 357.685453,313.358346 356.108527,315.365342 C354.531602,317.372339 352.66799,318.866536 350.517637,319.847979 C348.367284,320.829423 346.04604,321.320137 343.553836,321.320137 C341.061631,321.320137 338.751415,320.829423 336.623116,319.847979 C334.494818,318.866536 332.647748,317.372339 331.081849,315.365342 C329.515951,313.358346 328.291922,310.816556 327.409726,307.739897 C326.52753,304.663238 326.086438,301.040774 326.086438,296.872397 C326.086438,292.681965 326.52753,289.053988 327.409726,285.988356 C328.291922,282.922724 329.515951,280.386448 331.081849,278.379452 C332.647748,276.372456 334.494818,274.878258 336.623116,273.896815 C338.751415,272.915372 341.061631,272.424658 343.553836,272.424658 C346.04604,272.424658 348.367284,272.915372 350.517637,273.896815 C352.66799,274.878258 354.531602,276.372456 356.108527,278.379452 C357.685453,280.386448 358.920509,282.922724 359.813733,285.988356 C360.706957,289.053988 361.153562,292.681965 361.153562,296.872397 Z M352.717603,296.872397 C352.717603,293.409777 352.463975,290.542683 351.956712,288.271027 C351.44945,285.999372 350.771271,284.190897 349.922158,282.845548 C349.073044,281.500199 348.097129,280.557366 346.994384,280.017021 C345.891638,279.476675 344.7448,279.206507 343.553836,279.206507 C342.384926,279.206507 341.254629,279.476675 340.162911,280.017021 C339.071193,280.557366 338.106306,281.500199 337.268219,282.845548 C336.430133,284.190897 335.762982,285.999372 335.266747,288.271027 C334.770511,290.542683 334.522397,293.409777 334.522397,296.872397 C334.522397,300.335017 334.770511,303.202112 335.266747,305.473767 C335.762982,307.745422 336.430133,309.553897 337.268219,310.899247 C338.106306,312.244596 339.071193,313.187429 340.162911,313.727774 C341.254629,314.268119 342.384926,314.538288 343.553836,314.538288 C344.7448,314.538288 345.891638,314.268119 346.994384,313.727774 C348.097129,313.187429 349.073044,312.244596 349.922158,310.899247 C350.771271,309.553897 351.44945,307.745422 351.956712,305.473767 C352.463975,303.202112 352.717603,300.335017 352.717603,296.872397 Z" id="path-27"></path>
        <filter x="-1.2%" y="-4.1%" width="102.4%" height="108.2%" filterUnits="objectBoundingBox" id="filter-28">
            <feGaussianBlur stdDeviation="1.5" in="SourceAlpha" result="shadowBlurInner1"></feGaussianBlur>
            <feOffset dx="0" dy="1" in="shadowBlurInner1" result="shadowOffsetInner1"></feOffset>
            <feComposite in="shadowOffsetInner1" in2="SourceAlpha" operator="arithmetic" k2="-1" k3="1" result="shadowInnerInner1"></feComposite>
            <feColorMatrix values="0 0 0 0 0.684204932   0 0 0 0 0.679961047   0 0 0 0 0.662985508  0 0 0 1 0" type="matrix" in="shadowInnerInner1"></feColorMatrix>
        </filter>
    </defs>
    <g id="Bilde-til-nettsiden" stroke="none" stroke-width="1" fill="none" fill-rule="evenodd">
        <g id="section-1-copy-20" transform="translate(-210.000000, -103.000000)">
            <g id="timer" transform="translate(224.000000, 103.000000)">
                <g id="bcg-shape" transform="translate(0.000000, 21.000000)">
                    <g id="Combined-Shape">
                        <use fill="black" fill-opacity="1" filter="url(#filter-2)" xlink:href="#path-1"></use>
                        <use fill="#F6F6F6" fill-rule="evenodd" xlink:href="#path-1"></use>
                    </g>
                    <circle id="Oval-Copy" stroke="#EFEEEA" stroke-width="2" fill="#FFFFFF" cx="276.472603" cy="276.472603" r="235.442574"></circle>
                </g>
                <g id="piece12">
                    <use fill="black" fill-opacity="1" filter="url(#filter-4)" xlink:href="#path-3"></use>
                    <use fill="#E5E3DC" fill-rule="evenodd" xlink:href="#path-3"></use>
                </g>
                <g id="piece11">
                    <use fill="black" fill-opacity="1" filter="url(#filter-6)" xlink:href="#path-5"></use>
                    <use fill="#E5E3DC" fill-rule="evenodd" xlink:href="#path-5"></use>
                </g>
                <g id="piece10">
                    <use fill="black" fill-opacity="1" filter="url(#filter-8)" xlink:href="#path-7"></use>
                    <use fill="#E5E3DC" fill-rule="evenodd" xlink:href="#path-7"></use>
                </g>
                <g id="piece9">
                    <use fill="black" fill-opacity="1" filter="url(#filter-10)" xlink:href="#path-9"></use>
                    <use fill="#E5E3DC" fill-rule="evenodd" xlink:href="#path-9"></use>
                </g>
                <g id="piece8">
                    <use fill="black" fill-opacity="1" filter="url(#filter-12)" xlink:href="#path-11"></use>
                    <use fill="#E5E3DC" fill-rule="evenodd" xlink:href="#path-11"></use>
                </g>
                <g id="piece7">
                    <use fill="black" fill-opacity="1" filter="url(#filter-14)" xlink:href="#path-13"></use>
                    <use fill="#FFE317" fill-rule="evenodd" xlink:href="#path-13"></use>
                </g>
                <g id="piece6">
                    <use fill="black" fill-opacity="1" filter="url(#filter-16)" xlink:href="#path-15"></use>
                    <use fill="#FFE317" fill-rule="evenodd" xlink:href="#path-15"></use>
                </g>
                <g id="piece5">
                    <use fill="black" fill-opacity="1" filter="url(#filter-18)" xlink:href="#path-17"></use>
                    <use fill="#FFE317" fill-rule="evenodd" xlink:href="#path-17"></use>
                </g>
                <g id="piece4">
                    <use fill="black" fill-opacity="1" filter="url(#filter-20)" xlink:href="#path-19"></use>
                    <use fill="#FFE317" fill-rule="evenodd" xlink:href="#path-19"></use>
                </g>
                <g id="piece3">
                    <use fill="black" fill-opacity="1" filter="url(#filter-22)" xlink:href="#path-21"></use>
                    <use fill="#FFE317" fill-rule="evenodd" xlink:href="#path-21"></use>
                </g>
                <g id="piece2">
                    <use fill="black" fill-opacity="1" filter="url(#filter-24)" xlink:href="#path-23"></use>
                    <use fill="#FFE317" fill-rule="evenodd" xlink:href="#path-23"></use>
                </g>
                <g id="piece1">
                    <use fill="black" fill-opacity="1" filter="url(#filter-26)" xlink:href="#path-25"></use>
                    <use fill="#FFE317" fill-rule="evenodd" xlink:href="#path-25"></use>
                </g>
                <g id="12:00-copy">
                    <use fill="#FFE317" fill-rule="evenodd" xlink:href="#path-27"></use>
                    <use fill="black" fill-opacity="1" filter="url(#filter-28)" xlink:href="#path-27"></use>
                </g>
                <path d="M514.974,0.972 L504.336,27 L500.106,27 L497.172,8.964 C497.136,8.7239988 497.1,8.46900135 497.064,8.199 C497.028,7.92899865 496.998,7.6440015 496.974,7.344 C496.865999,7.6440015 496.761001,7.92899865 496.659,8.199 C496.556999,8.46900135 496.458,8.7239988 496.362,8.964 L489,27 L484.806,27 L480.558,0.972 L484.212,0.972 C484.620002,0.972 484.946999,1.07099901 485.193,1.269 C485.439001,1.46700099 485.586,1.72199844 485.634,2.034 L487.92,18 C487.956,18.3840019 487.989,18.7979978 488.019,19.242 C488.049,19.6860022 488.076,20.1479976 488.1,20.628 C488.256001,20.1479976 488.411999,19.6860022 488.568,19.242 C488.724001,18.7979978 488.885999,18.3840019 489.054,18 L495.534,2.034 C495.666001,1.76999868 495.878999,1.52700111 496.173,1.305 C496.467001,1.08299889 496.805998,0.972 497.19,0.972 L498.288,0.972 C498.696002,0.972 499.013999,1.07099901 499.242,1.269 C499.470001,1.46700099 499.632,1.72199844 499.728,2.034 L502.32,18 C502.38,18.3720019 502.437,18.7739978 502.491,19.206 C502.545,19.6380022 502.59,20.0879977 502.626,20.556 C502.758001,20.0879977 502.889999,19.6410021 503.022,19.215 C503.154001,18.7889979 503.285999,18.3840019 503.418,18 L509.592,2.034 C509.64,1.88999928 509.717999,1.75500063 509.826,1.629 C509.934001,1.50299937 510.062999,1.39200048 510.213,1.296 C510.363001,1.19999952 510.530999,1.1220003 510.717,1.062 C510.903001,1.0019997 511.091999,0.972 511.284,0.972 L514.974,0.972 Z M519.726,23.85 C520.470004,23.85 521.141997,23.6370021 521.742,23.211 C522.342003,22.7849979 522.851998,22.2150036 523.272,21.501 C523.692002,20.7869964 524.015999,19.9560047 524.244,19.008 C524.472001,18.0599953 524.586,17.0640052 524.586,16.02 C524.586,14.5199925 524.334003,13.4190035 523.83,12.717 C523.325997,12.0149965 522.558005,11.664 521.526,11.664 C520.781996,11.664 520.107003,11.8739979 519.501,12.294 C518.894997,12.7140021 518.382002,13.2809964 517.962,13.995 C517.541998,14.7090036 517.218001,15.5399953 516.99,16.488 C516.761999,17.4360047 516.648,18.4379947 516.648,19.494 C516.648,20.9940075 516.899997,22.0949965 517.404,22.797 C517.908003,23.4990035 518.681995,23.85 519.726,23.85 Z M519.312,27.27 C518.291995,27.27 517.350004,27.0990017 516.486,26.757 C515.621996,26.4149983 514.872003,25.9140033 514.236,25.254 C513.599997,24.5939967 513.102002,23.7840048 512.742,22.824 C512.381998,21.8639952 512.202,20.7660062 512.202,19.53 C512.202,17.933992 512.459997,16.4460069 512.976,15.066 C513.492003,13.6859931 514.190996,12.492005 515.073,11.484 C515.955004,10.475995 516.983994,9.68400288 518.16,9.108 C519.336006,8.53199712 520.589993,8.244 521.922,8.244 C522.942005,8.244 523.886996,8.41499829 524.757,8.757 C525.627004,9.09900171 526.376997,9.5999967 527.007,10.26 C527.637003,10.9200033 528.131998,11.7299952 528.492,12.69 C528.852002,13.6500048 529.032,14.7479938 529.032,15.984 C529.032,17.5680079 528.774003,19.0469931 528.258,20.421 C527.741997,21.7950069 527.043004,22.9889949 526.161,24.003 C525.278996,25.0170051 524.250006,25.8149971 523.074,26.397 C521.897994,26.9790029 520.644007,27.27 519.312,27.27 Z M536.826,12.96 C537.294002,12.0479954 537.794997,11.2650033 538.329,10.611 C538.863003,9.95699673 539.417997,9.44700183 539.994,9.081 C540.570003,8.71499817 541.163997,8.49900033 541.776,8.433 C542.388003,8.36699967 542.999997,8.46599868 543.612,8.73 L542.802,12.978 C541.337993,12.3659969 540.057005,12.5159954 538.959,13.428 C537.860995,14.3400046 536.982003,16.1339866 536.322,18.81 L535.332,27 L530.976,27 L533.208,8.514 L535.476,8.514 C535.944002,8.514 536.306999,8.62799886 536.565,8.856 C536.823001,9.08400114 536.952,9.44999748 536.952,9.954 L536.826,12.96 Z M551.334,0.252 L549.462,15.57 L549.912,15.57 C550.188001,15.57 550.412999,15.5280004 550.587,15.444 C550.761001,15.3599996 550.943999,15.2040011 551.136,14.976 L556.05,9.306 C556.254001,9.05399874 556.469999,8.86200066 556.698,8.73 C556.926001,8.59799934 557.213998,8.532 557.562,8.532 L561.522,8.532 L555.438,15.39 C555.005998,15.9180026 554.538003,16.3319985 554.034,16.632 C554.262001,16.8000008 554.456999,17.0039988 554.619,17.244 C554.781001,17.4840012 554.927999,17.7479986 555.06,18.036 L559.614,27 L555.762,27 C555.437998,27 555.168001,26.9430006 554.952,26.829 C554.735999,26.7149994 554.562001,26.5080015 554.43,26.208 L550.848,19.206 C550.715999,18.9299986 550.575001,18.7500004 550.425,18.666 C550.274999,18.5819996 550.032002,18.54 549.696,18.54 L549.084,18.54 L548.058,27 L543.666,27 L546.96,0.252 L551.334,0.252 Z" id="Work" fill="#CAC9C6"></path>
                <path d="M466.44,99.586 C466.393333,99.6653337 466.344334,99.7236665 466.293,99.761 C466.241666,99.7983335 466.176334,99.817 466.097,99.817 C466.013,99.817 465.917334,99.7785004 465.81,99.7015 C465.702666,99.6244996 465.568501,99.5381671 465.4075,99.4425 C465.246499,99.3468329 465.054001,99.2605004 464.83,99.1835 C464.605999,99.1064996 464.337668,99.068 464.025,99.068 C463.730999,99.068 463.473168,99.1064996 463.2515,99.1835 C463.029832,99.2605004 462.844334,99.3654993 462.695,99.4985 C462.545666,99.6315007 462.4325,99.7878324 462.3555,99.9675 C462.2785,100.147168 462.24,100.341999 462.24,100.552 C462.24,100.822668 462.308833,101.046666 462.4465,101.224 C462.584167,101.401334 462.764999,101.552999 462.989,101.679 C463.213001,101.805001 463.467332,101.914666 463.752,102.008 C464.036668,102.101334 464.328332,102.198166 464.627,102.2985 C464.925668,102.398834 465.217332,102.514333 465.502,102.645 C465.786668,102.775667 466.040999,102.940166 466.265,103.1385 C466.489001,103.336834 466.669833,103.579499 466.8075,103.8665 C466.945167,104.153501 467.014,104.504665 467.014,104.92 C467.014,105.363336 466.938167,105.778665 466.7865,106.166 C466.634833,106.553335 466.414335,106.891665 466.125,107.181 C465.835665,107.470335 465.479835,107.697833 465.0575,107.8635 C464.635165,108.029167 464.155669,108.112 463.619,108.112 C463.296998,108.112 462.984335,108.0805 462.681,108.0175 C462.377665,107.9545 462.090668,107.865834 461.82,107.7515 C461.549332,107.637166 461.296168,107.499501 461.0605,107.3385 C460.824832,107.177499 460.613668,106.996668 460.427,106.796 L460.854,106.082 C460.896,106.026 460.946166,105.979334 461.0045,105.942 C461.062834,105.904666 461.129333,105.886 461.204,105.886 C461.302,105.886 461.415166,105.937333 461.5435,106.04 C461.671834,106.142667 461.830499,106.255833 462.0195,106.3795 C462.208501,106.503167 462.434832,106.616333 462.6985,106.719 C462.962168,106.821667 463.282998,106.873 463.661,106.873 C463.969002,106.873 464.244332,106.832167 464.487,106.7505 C464.729668,106.668833 464.933833,106.552167 465.0995,106.4005 C465.265167,106.248833 465.392333,106.065668 465.481,105.851 C465.569667,105.636332 465.614,105.398335 465.614,105.137 C465.614,104.842999 465.546334,104.602668 465.411,104.416 C465.275666,104.229332 465.096001,104.073001 464.872,103.947 C464.647999,103.820999 464.393668,103.713667 464.109,103.625 C463.824332,103.536333 463.532668,103.444167 463.234,103.3485 C462.935332,103.252833 462.643668,103.142001 462.359,103.016 C462.074332,102.889999 461.820001,102.725501 461.596,102.5225 C461.371999,102.319499 461.192334,102.065168 461.057,101.7595 C460.921666,101.453832 460.854,101.077002 460.854,100.629 C460.854,100.269665 460.923999,99.9220017 461.064,99.586 C461.204001,99.2499983 461.408165,98.9525013 461.6765,98.6935 C461.944835,98.4344987 462.274998,98.2268341 462.667,98.0705 C463.059002,97.9141659 463.506997,97.836 464.011,97.836 C464.575669,97.836 465.094831,97.9258324 465.5685,98.1055 C466.042169,98.2851676 466.453998,98.5429983 466.804,98.879 L466.44,99.586 Z M475.708,99.194 L472.516,99.194 L472.516,108 L471.032,108 L471.032,99.194 L467.826,99.194 L467.826,97.948 L475.708,97.948 L475.708,99.194 Z M486.103,102.974 C486.103,103.725337 485.982835,104.41483 485.7425,105.0425 C485.502165,105.67017 485.162669,106.211498 484.724,106.6665 C484.285331,107.121502 483.760336,107.474999 483.149,107.727 C482.537664,107.979001 481.85867,108.105 481.112,108.105 C480.369996,108.105 479.69217,107.979001 479.0785,107.727 C478.46483,107.474999 477.939836,107.121502 477.5035,106.6665 C477.067164,106.211498 476.727668,105.67017 476.485,105.0425 C476.242332,104.41483 476.121,103.725337 476.121,102.974 C476.121,102.22733 476.242332,101.539003 476.485,100.909 C476.727668,100.278997 477.067164,99.7365023 477.5035,99.2815 C477.939836,98.8264977 478.46483,98.4718346 479.0785,98.2175 C479.69217,97.9631654 480.369996,97.836 481.112,97.836 C481.85867,97.836 482.537664,97.9631654 483.149,98.2175 C483.760336,98.4718346 484.285331,98.8264977 484.724,99.2815 C485.162669,99.7365023 485.502165,100.278997 485.7425,100.909 C485.982835,101.539003 486.103,102.22733 486.103,102.974 Z M484.577,102.974 C484.577,102.376664 484.495334,101.840002 484.332,101.364 C484.168666,100.887998 483.936502,100.484335 483.6355,100.153 C483.334498,99.821665 482.970502,99.5673342 482.5435,99.39 C482.116498,99.2126658 481.639336,99.124 481.112,99.124 C480.584664,99.124 480.107502,99.2126658 479.6805,99.39 C479.253498,99.5673342 478.888335,99.821665 478.585,100.153 C478.281665,100.484335 478.048334,100.887998 477.885,101.364 C477.721666,101.840002 477.64,102.376664 477.64,102.974 C477.64,103.576003 477.721666,104.113831 477.885,104.5875 C478.048334,105.061169 478.281665,105.463665 478.585,105.795 C478.888335,106.126335 479.253498,106.379499 479.6805,106.5545 C480.107502,106.729501 480.584664,106.817 481.112,106.817 C481.639336,106.817 482.116498,106.729501 482.5435,106.5545 C482.970502,106.379499 483.334498,106.126335 483.6355,105.795 C483.936502,105.463665 484.168666,105.061169 484.332,104.5875 C484.495334,104.113831 484.577,103.576003 484.577,102.974 Z M491.017,103.121 C491.395002,103.121 491.727499,103.072 492.0145,102.974 C492.301501,102.876 492.541832,102.737168 492.7355,102.5575 C492.929168,102.377832 493.075,102.163168 493.173,101.9135 C493.271,101.663832 493.32,101.387335 493.32,101.084 C493.32,100.472664 493.129835,99.9920018 492.7495,99.642 C492.369165,99.2919983 491.791671,99.117 491.017,99.117 L489.463,99.117 L489.463,103.121 L491.017,103.121 Z M491.017,97.948 C491.661003,97.948 492.220998,98.0226659 492.697,98.172 C493.173002,98.3213341 493.567332,98.5324986 493.88,98.8055 C494.192668,99.0785014 494.424833,99.4086647 494.5765,99.796 C494.728167,100.183335 494.804,100.612664 494.804,101.084 C494.804,101.555336 494.722334,101.988165 494.559,102.3825 C494.395666,102.776835 494.155335,103.116332 493.838,103.401 C493.520665,103.685668 493.125169,103.906166 492.6515,104.0625 C492.177831,104.218834 491.633003,104.297 491.017,104.297 L489.463,104.297 L489.463,108 L487.972,108 L487.972,97.948 L491.017,97.948 Z" id="STOP" fill="#FF686C"></path>
            </g>
        </g>
    </g>
</svg>